<?xml version="1.0" encoding="UTF-8" standalone="no"?><!DOCTYPE svg PUBLIC "-//W3C//DTD SVG 1.1//EN" "http://www.w3.org/Graphics/SVG/1.1/DTD/svg11.dtd"><svg width="100%" height="100%" viewBox="0 0 4267 4267" version="1.1" xmlns="http://www.w3.org/2000/svg" xmlns:xlink="http://www.w3.org/1999/xlink" xml:space="preserve" xmlns:serif="http://www.serif.com/" style="fill-rule:evenodd;clip-rule:evenodd;stroke-linejoin:round;stroke-miterlimit:2;"><rect id="Artboard1" x="0" y="0" width="4266.667" height="4266.667" style="fill:none;"/><clipPath id="_clip1"><rect x="0" y="0" width="4266.667" height="4266.667"/></clipPath><g clip-path="url(#_clip1)"><g><path d="M2774.268,21.963c-740.15,849.88 -939.305,1880.602 -666.364,2795.459c139.709,468.285 431.874,1043.434 790.462,1412.337c254.179,261.491 -117.83,-233.385 -1425.095,-369.255c-664.38,-69.052 -923.439,27.912 -936.478,-27.939c-24.311,-104.13 -101.701,-783.34 66.79,-1381.481c32.14,-114.096 213.264,-880.35 974.747,-1609.219c82.961,-79.407 560.388,-536.386 1170.813,-830.556c9.121,-4.396 12.949,-2.773 13.993,-2.33c8.502,3.605 2.153,9.177 11.132,12.984Z" style="fill-opacity:1;"/><path d="M3760.777,3728.867c-5.101,2.334 -5.577,10.674 -10.678,13.008c-10.71,4.899 -108.836,-55.623 -244.754,-98.299c-717.867,-225.397 -902.934,-118.495 -941.186,-188.146c-265.114,-482.741 -319.42,-1073.805 -328.319,-1170.663c-67.463,-734.263 199.072,-1464.281 273.177,-1512.246c43.027,-27.849 347.671,-225.03 542.411,-340.934c50.88,-30.282 16.733,24.96 -25.097,199.715c-135.741,567.091 -121.591,859.657 -69.917,1305.271c74.229,640.124 478.257,1450.276 804.362,1792.294Z" style="fill-opacity:1;"/></g></g></svg>