<svg viewBox="0 0 1024 1024" xmlns="http://www.w3.org/2000/svg" xml:space="preserve" style="fill-rule:evenodd;clip-rule:evenodd;stroke-linejoin:round;stroke-miterlimit:2"><path style="fill:none" d="M0 0h1024v1024H0z"/><path d="M152.212 3.446c-48.746 55.973-61.862 123.856-43.887 184.108 9.201 30.841 28.443 68.719 52.06 93.015 16.74 17.222-7.761-15.37-93.856-24.319-43.756-4.547-60.817 1.839-61.676-1.84-1.601-6.858-6.698-51.59 4.399-90.983 2.116-7.515 14.045-57.979 64.196-105.982 5.464-5.23 36.907-35.326 77.109-54.7.601-.29.853-.183.921-.154.56.238.142.605.734.855" style="fill-opacity:1" transform="translate(-2.777 337.139)scale(1.21406)"/><path d="M217.182 247.581c-.336.154-.367.703-.703.857-.705.322-7.168-3.664-16.119-6.474-47.278-14.845-59.467-7.804-61.986-12.392-17.46-31.793-21.037-70.72-21.623-77.099-4.443-48.358 13.111-96.436 17.991-99.595 2.834-1.834 22.898-14.821 35.723-22.454 3.351-1.994 1.102 1.644-1.653 13.153-8.939 37.348-8.008 56.617-4.604 85.964 4.888 42.159 31.497 95.515 52.974 118.04" style="fill-opacity:1" transform="translate(-2.777 337.139)scale(1.21406)"/><path d="M1588.65 423.024a1.85 1.85 0 0 1-.955-.248 1.74 1.74 0 0 1-.663-.715q-.242-.466-.242-1.12 0-.658.244-1.126.243-.468.665-.715.421-.248.951-.248.336 0 .629.096t.521.28q.23.183.375.449.147.265.193.603h-.742a.88.88 0 0 0-.617-.717 1.1 1.1 0 0 0-.346-.052q-.331 0-.588.166a1.1 1.1 0 0 0-.402.485 1.9 1.9 0 0 0-.144.779q0 .464.146.782t.401.48.585.162q.182 0 .341-.049a.87.87 0 0 0 .624-.696h.742a1.6 1.6 0 0 1-.538.994 1.7 1.7 0 0 1-.521.301 1.9 1.9 0 0 1-.659.109m2.52-.054h-.786l1.433-4.063h.906l1.43 4.063h-.783l-1.085-3.23h-.033zm.028-1.594h2.141v.591h-2.141zm3.141 1.594v-4.063h1.524q.468 0 .786.163t.482.457q.165.292.165.681 0 .388-.165.676-.166.286-.487.442-.322.155-.793.155h-1.083v-.608h.984q.274 0 .45-.077a.53.53 0 0 0 .259-.225.73.73 0 0 0 .083-.363.76.76 0 0 0-.084-.37.55.55 0 0 0-.26-.235 1.1 1.1 0 0 0-.451-.081h-.675v3.448zm2.282 0-.985-1.843h.802l1.007 1.843z" style="fill-rule:nonzero" transform="translate(-36123.344 -9173.768)scale(22.9263)"/><path d="M1598.147 422.97h-.786l1.433-4.063h.906l1.43 4.063h-.783l-1.085-3.23h-.033zm.028-1.594h2.141v.591h-2.141zm3.218-2.469 1.055 3.197h.042l1.057-3.197h.805l-1.43 4.063h-.906l-1.433-4.063zm3.145 4.063v-4.063h2.643v.617h-1.908v1.09h1.769v.608h-1.769v1.13h1.92v.618zm3.042 0v-4.063h.736v3.445h1.792v.618z" style="fill-rule:nonzero" transform="translate(-36123.344 -9173.768)scale(22.9263)"/><path d="M1586.957 422.97v-4.063h2.438v.436h-1.947v1.418h1.761v.436h-1.761v1.773zm2.876-4.063h.491v4.063h-.491zm4.3 0v4.063h-.486l-2.208-3.191h-.044v3.191h-.491v-4.063h.475l2.225 3.195h.038v-3.195zm.749 4.063h-.518l1.494-4.063h.507l1.489 4.063h-.513l-1.216-3.42h-.033zm.191-1.587h2.077v.436h-2.077zm6.24-2.476v4.063h-.485l-2.208-3.191h-.044v3.191h-.491v-4.063h.475l2.225 3.195h.038v-3.195zm2.217 4.117q-.519 0-.925-.254a1.74 1.74 0 0 1-.638-.721q-.231-.467-.231-1.108 0-.644.231-1.113.233-.468.638-.722.406-.254.925-.254.305 0 .576.09t.49.261.364.417.2.557h-.491a1.03 1.03 0 0 0-.413-.644 1.2 1.2 0 0 0-.339-.167 1.4 1.4 0 0 0-.387-.056q-.369 0-.668.187t-.476.551q-.176.364-.176.893 0 .526.176.889t.476.549.668.187q.201 0 .387-.056a1.2 1.2 0 0 0 .339-.166 1.04 1.04 0 0 0 .413-.645h.491a1.6 1.6 0 0 1-.2.559 1.5 1.5 0 0 1-.364.416q-.219.17-.49.26-.27.09-.576.09m-.208-.038h.388l-.033.158q.156.024.285.131t.129.338a.5.5 0 0 1-.211.417q-.211.16-.623.161l-.016-.311a.7.7 0 0 0 .308-.056.2.2 0 0 0 .122-.195q0-.137-.102-.186a1 1 0 0 0-.328-.07zm2.402-.016h-.518l1.494-4.063h.507l1.489 4.063h-.512l-1.217-3.42h-.032zm.191-1.587h2.078v.436h-2.078zm4.299 1.657a1.9 1.9 0 0 1-.755-.14 1.12 1.12 0 0 1-.706-.978h.507a.64.64 0 0 0 .157.379q.135.15.345.224t.452.074q.282 0 .506-.093a.86.86 0 0 0 .356-.259.6.6 0 0 0 .131-.39.46.46 0 0 0-.115-.327.85.85 0 0 0-.298-.205 3 3 0 0 0-.4-.139l-.496-.141q-.477-.137-.754-.392a.87.87 0 0 1-.277-.666q0-.342.184-.596.184-.255.499-.397t.703-.142q.392 0 .698.141t.485.381q.18.242.191.547h-.48a.62.62 0 0 0-.288-.466 1.1 1.1 0 0 0-.623-.166q-.267 0-.469.087a.74.74 0 0 0-.313.24.57.57 0 0 0-.112.349q0 .215.133.347.134.133.318.206t.334.118l.409.114q.159.043.353.117.196.074.376.199.182.126.299.321a.9.9 0 0 1 .117.481q0 .327-.171.593a1.2 1.2 0 0 1-.499.423 1.85 1.85 0 0 1-.797.156m3.042-.07v-4.063h1.374q.478 0 .782.172.303.171.451.463.147.292.147.652 0 .357-.146.651a1.1 1.1 0 0 1-.45.468q-.303.173-.778.173h-.982v-.436h.966q.327 0 .526-.112a.67.67 0 0 0 .289-.307q.09-.194.09-.437 0-.246-.09-.438a.66.66 0 0 0-.291-.302q-.2-.111-.53-.111h-.867v3.627zm3.144 0v-4.063h2.453v.436h-1.963v1.358h1.833v.436h-1.833v1.396h1.991v.437zm4.223.07q-.436 0-.756-.14a1.12 1.12 0 0 1-.706-.978h.507a.64.64 0 0 0 .157.379q.135.15.345.224t.453.074q.28 0 .505-.093a.86.86 0 0 0 .356-.259.6.6 0 0 0 .131-.39.47.47 0 0 0-.114-.327.9.9 0 0 0-.299-.205 3 3 0 0 0-.399-.139l-.497-.141q-.477-.137-.754-.392a.87.87 0 0 1-.276-.666q0-.342.184-.596.184-.255.499-.397a1.7 1.7 0 0 1 .702-.142q.392 0 .698.141t.485.381q.18.242.191.547h-.48a.62.62 0 0 0-.288-.466 1.1 1.1 0 0 0-.623-.166q-.267 0-.469.087a.74.74 0 0 0-.313.24.57.57 0 0 0-.112.349q0 .215.134.347a.9.9 0 0 0 .317.206q.184.073.334.118l.409.114q.159.043.353.117.195.074.377.199.181.126.298.321a.9.9 0 0 1 .117.481q0 .327-.171.593a1.2 1.2 0 0 1-.499.423 1.84 1.84 0 0 1-.796.156m3.159 0q-.436 0-.755-.14a1.12 1.12 0 0 1-.706-.978h.507q.021.23.157.379.135.15.345.224t.452.074q.28 0 .506-.093a.86.86 0 0 0 .356-.259.6.6 0 0 0 .131-.39.46.46 0 0 0-.115-.327.85.85 0 0 0-.298-.205 3 3 0 0 0-.4-.139l-.496-.141q-.477-.137-.754-.392a.86.86 0 0 1-.277-.666q0-.342.184-.596.184-.255.499-.397a1.7 1.7 0 0 1 .702-.142q.393 0 .698.141.306.14.486.381.18.242.191.547h-.48a.62.62 0 0 0-.288-.466 1.1 1.1 0 0 0-.623-.166q-.267 0-.469.087a.75.75 0 0 0-.314.24.58.58 0 0 0-.111.349q0 .215.133.347a.9.9 0 0 0 .318.206q.184.073.334.118l.409.114q.158.043.353.117t.376.199q.182.126.299.321a.9.9 0 0 1 .117.481q0 .327-.172.593-.17.266-.499.423a1.8 1.8 0 0 1-.796.156m3.512-.016q-.519 0-.925-.254a1.74 1.74 0 0 1-.639-.721q-.234-.467-.233-1.108 0-.644.233-1.113a1.74 1.74 0 0 1 .639-.722q.406-.254.925-.254a1.7 1.7 0 0 1 .924.254q.404.254.635.722.232.47.232 1.113 0 .641-.232 1.108a1.74 1.74 0 0 1-.635.721q-.403.255-.924.254m0-.458q.368 0 .666-.187.298-.186.475-.549.176-.363.176-.889 0-.529-.176-.893a1.3 1.3 0 0 0-.475-.551 1.24 1.24 0 0 0-.666-.187q-.37 0-.668.187-.3.187-.478.551-.177.364-.177.893 0 .526.177.889.178.363.478.549.299.187.668.187m2.194.404h-.518l1.494-4.063h.507l1.489 4.063h-.513l-1.216-3.42h-.032zm.191-1.587h2.078v.436h-2.078zm3.012-2.476h.491v4.063h-.491zm2.358 4.133q-.436 0-.755-.14a1.12 1.12 0 0 1-.706-.978h.507q.021.23.157.379.135.15.345.224t.452.074q.28 0 .506-.093a.86.86 0 0 0 .356-.259.6.6 0 0 0 .131-.39.46.46 0 0 0-.115-.327.85.85 0 0 0-.298-.205 3 3 0 0 0-.4-.139l-.496-.141q-.477-.137-.754-.392a.87.87 0 0 1-.277-.666q0-.342.184-.596.184-.255.499-.397a1.7 1.7 0 0 1 .702-.142q.393 0 .698.141.306.14.486.381.18.242.191.547h-.48a.62.62 0 0 0-.288-.466 1.1 1.1 0 0 0-.623-.166q-.267 0-.469.087a.74.74 0 0 0-.313.24.57.57 0 0 0-.112.349q0 .215.133.347a.9.9 0 0 0 .318.206q.184.073.334.118l.409.114q.158.043.353.117.196.074.376.199.182.126.299.321a.9.9 0 0 1 .117.481q0 .327-.172.593-.17.266-.499.423a1.8 1.8 0 0 1-.796.156" style="fill-rule:nonzero" transform="translate(-24174.862 -5903.746)scale(15.39787)"/></svg>